<?xml version="1.0" encoding="UTF-8" standalone="no"?>
<!-- Uploaded to: SVG Repo, www.svgrepo.com, Generator: SVG Repo Mixer Tools -->

<svg
   fill="#000000"
   version="1.1"
   id="Capa_1"
   width="555.25104"
   height="800"
   viewBox="0 0 274.64799 395.71"
   xml:space="preserve"
   sodipodi:docname="LocationIcon.svg"
   inkscape:version="1.3.2 (091e20e, 2023-11-25, custom)"
   xmlns:inkscape="http://www.inkscape.org/namespaces/inkscape"
   xmlns:sodipodi="http://sodipodi.sourceforge.net/DTD/sodipodi-0.dtd"
   xmlns="http://www.w3.org/2000/svg"
   xmlns:svg="http://www.w3.org/2000/svg"><defs
   id="defs1" /><sodipodi:namedview
   id="namedview1"
   pagecolor="#ffffff"
   bordercolor="#000000"
   borderopacity="0.25"
   inkscape:showpageshadow="2"
   inkscape:pageopacity="0.0"
   inkscape:pagecheckerboard="0"
   inkscape:deskcolor="#d1d1d1"
   inkscape:zoom="0.72566833"
   inkscape:cx="349.33315"
   inkscape:cy="469.22263"
   inkscape:window-width="1920"
   inkscape:window-height="1017"
   inkscape:window-x="1912"
   inkscape:window-y="-8"
   inkscape:window-maximized="1"
   inkscape:current-layer="Capa_1" />
<g
   id="g1"
   style="fill:#ffffff"
   transform="translate(-60.531)">
	<path
   d="M 197.849,0 C 122.131,0 60.531,61.609 60.531,137.329 c 0,72.887 124.591,243.177 129.896,250.388 l 4.951,6.738 c 0.579,0.792 1.501,1.255 2.471,1.255 0.985,0 1.901,-0.463 2.486,-1.255 l 4.948,-6.738 C 210.591,380.506 335.179,210.216 335.179,137.329 335.179,61.609 273.569,0 197.849,0 Z m 0,88.138 c 27.13,0 49.191,22.062 49.191,49.191 0,27.115 -22.062,49.191 -49.191,49.191 -27.114,0 -49.191,-22.076 -49.191,-49.191 0,-27.129 22.076,-49.191 49.191,-49.191 z"
   id="path1"
   style="fill:#ffffff" />
</g>
</svg>
