<?xml version="1.0" encoding="UTF-8" standalone="no"?>
<!-- Created with Inkscape (http://www.inkscape.org/) -->

<svg
   width="72.495834mm"
   height="72.495872mm"
   viewBox="0 0 72.495834 72.495872"
   version="1.1"
   id="svg1"
   xml:space="preserve"
   sodipodi:docname="playLogo.svg"
   inkscape:version="1.3.2 (091e20e, 2023-11-25, custom)"
   xmlns:inkscape="http://www.inkscape.org/namespaces/inkscape"
   xmlns:sodipodi="http://sodipodi.sourceforge.net/DTD/sodipodi-0.dtd"
   xmlns="http://www.w3.org/2000/svg"
   xmlns:svg="http://www.w3.org/2000/svg"><sodipodi:namedview
     id="namedview1"
     pagecolor="#ffffff"
     bordercolor="#000000"
     borderopacity="0.25"
     inkscape:showpageshadow="2"
     inkscape:pageopacity="0.0"
     inkscape:pagecheckerboard="0"
     inkscape:deskcolor="#d1d1d1"
     inkscape:document-units="mm"
     inkscape:zoom="0.36569515"
     inkscape:cx="261.14648"
     inkscape:cy="143.5622"
     inkscape:window-width="1920"
     inkscape:window-height="1017"
     inkscape:window-x="1912"
     inkscape:window-y="-8"
     inkscape:window-maximized="1"
     inkscape:current-layer="layer1" /><defs
     id="defs1"><linearGradient
       id="paint0_linear_102_1706"
       x1="1482"
       y1="385"
       x2="1.62042e-06"
       y2="385"
       gradientUnits="userSpaceOnUse"><stop
         id="stop88" /><stop
         offset="1"
         stop-opacity="0"
         id="stop89" /></linearGradient><linearGradient
       id="paint1_linear_102_1706"
       x1="511.5"
       y1="1023"
       x2="511.5"
       y2="1583"
       gradientUnits="userSpaceOnUse"><stop
         stop-opacity="0"
         id="stop90" /><stop
         offset="1"
         id="stop91" /></linearGradient><linearGradient
       id="paint2_linear_102_1706"
       x1="1136"
       y1="1023"
       x2="1136"
       y2="1583"
       gradientUnits="userSpaceOnUse"><stop
         stop-opacity="0"
         id="stop92" /><stop
         offset="1"
         id="stop93" /></linearGradient><linearGradient
       id="paint3_linear_102_1706"
       x1="304"
       y1="1599"
       x2="304"
       y2="2159"
       gradientUnits="userSpaceOnUse"><stop
         stop-opacity="0"
         id="stop94" /><stop
         offset="1"
         id="stop95" /></linearGradient><linearGradient
       id="paint4_linear_102_1706"
       x1="720"
       y1="1599"
       x2="720"
       y2="2159"
       gradientUnits="userSpaceOnUse"><stop
         stop-opacity="0"
         id="stop96" /><stop
         offset="1"
         id="stop97" /></linearGradient><linearGradient
       id="paint5_linear_102_1706"
       x1="1136"
       y1="1599"
       x2="1136"
       y2="2159"
       gradientUnits="userSpaceOnUse"><stop
         stop-opacity="0"
         id="stop98" /><stop
         offset="1"
         id="stop99" /></linearGradient></defs><g
     inkscape:label="Layer 1"
     inkscape:groupmode="layer"
     id="layer1"
     transform="translate(-339.25401,76.858911)"><g
       style="fill:none"
       id="g1"
       transform="matrix(0.26458333,0,0,0.26458333,549.98517,-159.87844)"><g
         clip-path="none"
         id="g88"
         transform="translate(-113.27554,-60.159399)"><circle
           cx="-546.18872"
           cy="510.93399"
           r="60.888901"
           fill="#fed530"
           id="circle3" /><path
           d="m -557.60569,529.712 v -37.557 l 28.161,18.779 z m 3.806,-30.444 V 522.6 l 17.505,-11.666 z"
           fill="#000000"
           id="path3" /><path
           d="m -409.18869,510.934 c 0,75.663 -61.337,137 -137,137 -75.663,0 -137,-61.337 -137,-137 0,-75.663 61.337,-137 137,-137 75.663,0 137,61.337 137,137 z m -271.26,0 c 0,74.15 60.11,134.26 134.26,134.26 74.15,0 134.26,-60.11 134.26,-134.26 0,-74.15 -60.11,-134.26 -134.26,-134.26 -74.15,0 -134.26,60.11 -134.26,134.26 z"
           fill="#808080"
           id="path4" /><path
           d="m -411.92869,510.934 c 1.513,0 2.743,1.227 2.713,2.74 -0.501,25.043 -7.86,49.49 -21.3,70.668 -13.93,21.951 -33.818,39.484 -57.341,50.553 -23.523,11.069 -49.71,15.217 -75.503,11.959 -25.792,-3.259 -50.125,-13.788 -70.156,-30.36 -20.031,-16.571 -34.934,-38.5 -42.968,-63.225 -8.033,-24.725 -8.866,-51.225 -2.401,-76.406 6.465,-25.18 19.962,-48.001 38.913,-65.798 18.285,-17.17 40.92,-28.979 65.425,-34.164 1.481,-0.313 2.917,0.665 3.2,2.151 0.284,1.487 -0.692,2.919 -2.173,3.233 -23.484,4.989 -45.174,16.316 -62.701,32.775 -18.193,17.085 -31.149,38.993 -37.356,63.166 -6.207,24.174 -5.407,49.614 2.305,73.35 7.712,23.736 22.019,44.787 41.249,60.696 19.23,15.908 42.59,26.017 67.35,29.145 24.761,3.128 49.9,-0.854 72.482,-11.48 22.583,-10.627 41.675,-27.459 55.048,-48.531 12.883,-20.301 19.945,-43.729 20.445,-67.732 0.032,-1.513 1.256,-2.74 2.769,-2.74 z"
           fill="#fed530"
           id="path5" /></g></g></g></svg>
